<svg width="226" height="226" viewBox="0 0 226 226" fill="none" xmlns="http://www.w3.org/2000/svg">
<path d="M0 196.859C0 212.955 13.0471 226 29.1408 226H196.858C212.955 226 226 212.953 226 196.859V29.1416C226 13.0453 212.953 0 196.859 0H29.1416C13.0453 0 0 13.0471 0 29.1408V196.858V196.859Z" fill="#563D7C"/>
<path d="M93.7177 99.9679V67.9632H121.889C124.573 67.9632 127.16 68.1866 129.651 68.6342C132.142 69.0809 134.347 69.879 136.263 71.0293C138.179 72.1796 139.712 73.7766 140.863 75.8203C142.012 77.8649 142.588 80.4842 142.588 83.6773C142.588 89.4271 140.863 93.5799 137.413 96.1347C133.963 98.6905 129.555 99.9679 124.189 99.9679H93.7177V99.9679ZM63.6288 44.5819V181.418H129.939C136.072 181.418 142.045 180.652 147.858 179.118C153.671 177.585 158.845 175.222 163.381 172.028C167.916 168.834 171.526 164.713 174.209 159.666C176.893 154.619 178.234 148.646 178.234 141.747C178.234 133.186 176.157 125.872 172.006 119.804C167.853 113.735 161.56 109.486 153.127 107.059C159.26 104.121 163.892 100.351 167.023 95.7516C170.153 91.1521 171.718 85.4032 171.718 78.5032C171.718 72.1151 170.664 66.7494 168.556 62.4051C166.447 58.0616 163.477 54.5798 159.644 51.9605C155.811 49.3412 151.212 47.4564 145.845 46.3069C140.479 45.1566 134.538 44.5819 128.022 44.5819H63.6288V44.5819ZM93.7177 158.037V120.474H126.489C133.005 120.474 138.243 121.975 142.204 124.978C146.165 127.98 148.146 132.995 148.146 140.022C148.146 143.6 147.538 146.538 146.325 148.838C145.111 151.138 143.482 152.959 141.437 154.3C139.394 155.642 137.029 156.6 134.347 157.175C131.663 157.749 128.853 158.037 125.914 158.037H93.7177V158.037Z" fill="white"/>
</svg>
