<svg width="191" height="191" viewBox="0 0 191 191" fill="none" xmlns="http://www.w3.org/2000/svg">
<path d="M0 166.372C0 179.975 11.0265 191 24.6278 191H166.371C179.975 191 191 179.973 191 166.372V24.6286C191 11.025 179.973 0 166.372 0H24.6286C11.025 0 0 11.0265 0 24.6278V166.371V166.372Z" fill="#563D7C"/>
<path d="M79.2039 84.4861V57.4379H103.013C105.281 57.4379 107.467 57.6267 109.572 58.005C111.678 58.3825 113.541 59.057 115.16 60.0291C116.779 61.0013 118.075 62.351 119.048 64.0782C120.019 65.8062 120.505 68.0198 120.505 70.7184C120.505 75.5778 119.048 79.0874 116.132 81.2466C113.217 83.4065 109.492 84.4861 104.956 84.4861H79.2039ZM53.7748 37.6776V153.322H109.815C114.999 153.322 120.047 152.675 124.96 151.379C129.873 150.083 134.245 148.086 138.079 145.386C141.912 142.687 144.962 139.204 147.23 134.939C149.498 130.674 150.631 125.626 150.631 119.795C150.631 112.56 148.876 106.379 145.368 101.25C141.858 96.1208 136.54 92.5305 129.413 90.4788C134.596 87.9958 138.511 84.8099 141.157 80.9228C143.801 77.0356 145.124 72.1771 145.124 66.3456C145.124 60.9468 144.233 56.4121 142.452 52.7405C140.67 49.0697 138.16 46.1271 134.92 43.9135C131.681 41.6998 127.794 40.1069 123.259 39.1355C118.724 38.1633 113.703 37.6776 108.196 37.6776H53.7748ZM79.2039 133.562V101.816H106.9C112.407 101.816 116.834 103.085 120.182 105.623C123.529 108.16 125.203 112.398 125.203 118.337C125.203 121.361 124.69 123.844 123.664 125.788C122.638 127.731 121.261 129.271 119.533 130.404C117.806 131.538 115.808 132.347 113.541 132.834C111.273 133.319 108.898 133.562 106.414 133.562H79.2039Z" fill="white"/>
</svg>
