<svg width="169" height="239" viewBox="0 0 169 239" fill="none" xmlns="http://www.w3.org/2000/svg">
<path d="M132.433 8.81443H118.414L132.996 24.6232V32.1417H102.955V23.3368H117.537L102.955 7.528V0H132.442L132.433 8.81443ZM96.9913 8.81443H82.9541L97.5543 24.6232V32.1417H67.5046V23.3368H82.0857L67.5046 7.528V0H96.9913V8.81443ZM61.8935 9.17654H46.7685V22.9747H61.8935V32.1512H36.0044V0H61.8935V9.17654Z" fill="#131313"/>
<path d="M15.3827 219.085L-6.10352e-05 46.8263H169L153.598 219.056L84.395 238.21L15.3827 219.085Z" fill="#1572B6"/>
<path d="M84.5 223.574L140.42 208.089L153.57 60.9104H84.5V223.574Z" fill="#33A9DC"/>
<path d="M84.5001 123.317H112.498L114.426 101.686H84.5001V80.569H137.557L137.051 86.2388L131.851 144.462H84.5001V123.317Z" fill="white"/>
<path d="M84.6147 178.186H84.5193L60.9585 171.83L59.4507 154.982H38.2279L41.1957 188.153L84.5384 200.198H84.6624V178.186H84.6147Z" fill="#EBEBEB"/>
<path d="M110.704 143.538L108.156 171.811L84.5571 178.167V200.179L127.928 188.172L128.243 184.599L131.927 143.528H110.704V143.538Z" fill="white"/>
<path d="M84.5764 80.569V101.695H33.4852L33.0462 96.9496L32.0824 86.2388L31.5767 80.569H84.5764ZM84.5001 123.317V144.443H61.2065L60.7962 139.697L59.8324 128.986L59.3266 123.317H84.4905H84.5001Z" fill="#EBEBEB"/>
</svg>
