<svg width="169" height="239" viewBox="0 0 169 239" fill="none" xmlns="http://www.w3.org/2000/svg">
<path d="M15.3798 219.074L0 46.8129H169L153.603 219.047L84.3963 238.207L15.3798 219.074Z" fill="#E44D26"/>
<path d="M84.4999 223.562L140.422 208.079L153.58 60.8986H84.4999V223.562Z" fill="#F16529"/>
<path d="M84.5001 124.788H56.5045L54.5706 103.153H84.5001V82.0258H31.448L31.955 87.6938L37.1548 145.914H84.5001V124.788ZM84.5001 179.656L84.4072 179.682L60.8447 173.328L59.3383 156.479H38.1004L41.0648 189.651L84.4033 201.665L84.5001 201.638V179.656Z" fill="#EBEBEB"/>
<path d="M15.7239 0H26.4754V10.6074H36.3104V0H47.0623V32.1222H36.3104V21.366H26.4754V32.1222H15.7247L15.7239 0ZM61.2018 10.6527H51.7371V0H81.4246V10.6527H71.9552V32.1222H61.2022V10.6527H61.2018ZM86.1355 0H97.3471L104.243 11.2871L111.133 0H122.349V32.1222H111.639V16.2003L104.242 27.6216H104.058L96.6553 16.2003V32.1222H86.1351V0H86.1355ZM127.699 0H138.453V21.5048H153.574V32.1222H127.699V0Z" fill="black"/>
<path d="M84.427 124.788V145.914H110.48L108.024 173.315L84.427 179.674V201.654L127.8 189.651L128.117 186.081L133.09 130.461L133.606 124.788H127.905H84.427ZM84.427 82.0258V103.153H135.531L135.955 98.4041L136.919 87.6938L137.425 82.0258H84.427Z" fill="white"/>
</svg>
