<svg width="191" height="191" viewBox="0 0 191 191" fill="none" xmlns="http://www.w3.org/2000/svg">
<path d="M0 0H191V191H0V0Z" fill="#F0DB4F"/>
<path d="M175.368 145.447C173.97 136.732 168.287 129.415 151.456 122.589C145.61 119.901 139.092 117.977 137.15 113.547C136.46 110.969 136.369 109.516 136.805 107.955C138.057 102.889 144.103 101.31 148.896 102.762C151.983 103.797 154.906 106.176 156.667 109.97C164.91 104.633 164.892 104.669 170.647 101.001C168.541 97.7334 167.415 96.2263 166.036 94.8285C161.079 89.2909 154.325 86.4405 143.522 86.6583C141.652 86.8944 139.764 87.1484 137.894 87.3846C132.502 88.7463 127.364 91.5786 124.35 95.3732C115.308 105.631 117.886 123.587 128.889 130.977C139.728 139.111 155.65 140.962 157.684 148.57C159.663 157.884 150.839 160.897 142.07 159.826C135.606 158.483 132.012 155.197 128.126 149.223C120.973 153.363 120.973 153.363 113.62 157.593C115.363 161.406 117.196 163.131 120.12 166.435C133.954 180.47 168.577 179.78 174.787 158.537C175.041 157.811 176.711 152.945 175.368 145.447ZM103.834 87.7838H85.9681C85.9681 103.216 85.8957 118.54 85.8957 133.972C85.8957 143.795 86.4041 152.8 84.8064 155.56C82.1919 160.988 75.4198 160.316 72.3333 159.263C69.1923 157.72 67.5946 155.523 65.7427 152.419C65.2343 151.529 64.853 150.839 64.7258 150.785C59.8783 153.744 55.0487 156.721 50.201 159.681C52.616 164.637 56.1743 168.94 60.7315 171.736C67.5399 175.821 76.6905 177.074 86.2588 174.877C92.4863 173.062 97.8602 169.303 100.674 163.584C104.741 156.086 103.87 147.008 103.834 136.968C103.924 120.591 103.834 104.215 103.834 87.7838Z" fill="#323330"/>
</svg>
