<svg width="225" height="117" viewBox="0 0 225 117" fill="none" xmlns="http://www.w3.org/2000/svg">
<path d="M112.148 117C174.086 117 224.296 90.8084 224.296 58.4998C224.296 26.1911 174.086 -0.000244141 112.148 -0.000244141C50.2104 -0.000244141 0 26.1911 0 58.4998C0 90.8084 50.2104 117 112.148 117Z" fill="#8993BE"/>
<path fill-rule="evenodd" clip-rule="evenodd" d="M31.4934 93.1377L43.7841 30.789H72.204C84.4939 31.559 90.6392 37.7163 90.6392 48.4935C90.6392 66.967 76.0451 77.7433 62.986 76.9733H49.1611L46.0884 93.1377H31.4934ZM52.2329 65.4279L56.074 42.3353H66.0595C71.4365 42.3353 75.2767 44.6444 75.2767 49.2626C74.5092 62.3488 68.3638 64.6579 61.451 65.4279H52.2338H52.2329ZM87.7838 76.9733L100.074 14.6255H114.669L111.596 30.789H125.422C137.712 31.559 142.321 37.7163 140.785 45.4144L135.408 76.9733H120.046L125.423 48.4935C126.19 44.6444 126.19 42.3353 120.814 42.3353H109.292L102.379 76.9733H87.7838ZM134.424 93.1377L146.714 30.789H175.135C187.426 31.559 193.571 37.7163 193.571 48.4935C193.571 66.967 178.976 77.7433 165.918 76.9733H152.091L149.018 93.1377H134.424ZM155.163 65.4279L159.004 42.3353H168.99C174.367 42.3353 178.208 44.6444 178.208 49.2626C177.44 62.3488 171.295 64.6579 164.382 65.4279H155.164H155.163Z" fill="#232531"/>
</svg>
