<svg width="329" height="171" viewBox="0 0 329 171" fill="none" xmlns="http://www.w3.org/2000/svg">
<path d="M164.573 171C255.097 171 328.482 132.72 328.482 85.5C328.482 38.2797 255.097 0 164.573 0C74.0484 0 0.66394 38.2797 0.66394 85.5C0.66394 132.72 74.0484 171 164.573 171Z" fill="#8993BE"/>
<path fill-rule="evenodd" clip-rule="evenodd" d="M46.6928 136.125L64.6561 44.9998H106.193C124.155 46.1251 133.137 55.1242 133.137 70.8754C133.137 97.8752 111.807 113.625 92.7204 112.5H72.5148L68.024 136.125H46.6928ZM77.0044 95.6257L82.6182 61.8751H97.2125C105.071 61.8751 110.684 65.2499 110.684 71.9995C109.562 91.1256 100.58 94.5004 90.4769 95.6257H77.0056H77.0044ZM128.963 112.5L146.925 21.3761H168.257L163.766 44.9998H183.973C201.936 46.1251 208.672 55.1242 206.427 66.3753L198.568 112.5H176.115L183.974 70.8754C185.096 65.2499 185.096 61.8751 177.238 61.8751H160.398L150.295 112.5H128.963V112.5ZM197.13 136.125L215.092 44.9998H256.63C274.594 46.1251 283.575 55.1242 283.575 70.8754C283.575 97.8752 262.244 113.625 243.159 112.5H222.951L218.46 136.125H197.13V136.125ZM227.44 95.6257L233.054 61.8751H247.65C255.509 61.8751 261.121 65.2499 261.121 71.9995C259.999 91.1256 251.018 94.5004 240.914 95.6257H227.442H227.44Z" fill="#232531"/>
</svg>
