<svg width="226" height="226" viewBox="0 0 226 226" fill="none" xmlns="http://www.w3.org/2000/svg">
<rect width="226" height="226" fill="white"/>
<path d="M113 171.889C175.408 171.889 226 145.498 226 112.944C226 80.3903 175.408 54 113 54C50.5918 54 0 80.3903 0 112.944C0 145.498 50.5918 171.889 113 171.889Z" fill="#8993BE"/>
<path fill-rule="evenodd" clip-rule="evenodd" d="M31.7327 147.845L44.1167 85.0233H72.7525C85.1357 85.7991 91.3277 92.0031 91.3277 102.862C91.3277 121.476 76.6228 132.334 63.4644 131.558H49.5346L46.4385 147.845H31.7327ZM52.6297 119.925L56.4999 96.6572H66.5614C71.9792 96.6572 75.8485 98.9839 75.8485 103.637C75.0752 116.823 68.8831 119.149 61.9178 119.925H52.6306H52.6297ZM88.4507 131.558L100.834 68.7369H115.54L112.444 85.0233H126.374C138.759 85.7991 143.402 92.0031 141.855 99.7597L136.437 131.558H120.958L126.375 102.862C127.149 98.9839 127.149 96.6572 121.732 96.6572H110.122L103.157 131.558H88.4507V131.558ZM135.445 147.845L147.829 85.0233H176.465C188.849 85.7991 195.041 92.0031 195.041 102.862C195.041 121.476 180.335 132.334 167.178 131.558H153.246L150.15 147.845H135.445V147.845ZM156.342 119.925L160.212 96.6572H170.274C175.692 96.6572 179.561 98.9839 179.561 103.637C178.788 116.823 172.596 119.149 165.63 119.925H156.342H156.342Z" fill="#232531"/>
</svg>
