<svg width="317" height="226" viewBox="0 0 317 226" fill="none" xmlns="http://www.w3.org/2000/svg">
<rect width="317" height="226" fill="white"/>
<path d="M158.5 195.357C246.037 195.357 317 158.341 317 112.679C317 67.0165 246.037 30 158.5 30C70.9629 30 0 67.0165 0 112.679C0 158.341 70.9629 195.357 158.5 195.357Z" fill="#8993BE"/>
<path fill-rule="evenodd" clip-rule="evenodd" d="M44.51 161.633L61.8806 73.515H102.047C119.416 74.6032 128.101 83.3053 128.101 98.5368C128.101 124.646 107.475 139.876 89.0187 138.788H69.4799L65.1373 161.633H44.51ZM73.8213 122.47L79.25 89.8334H93.3626C100.962 89.8334 106.389 93.0969 106.389 99.6238C105.305 118.119 96.6193 121.382 86.8493 122.47H73.8226H73.8213ZM124.066 138.788L141.435 50.6709H162.062L157.72 73.515H177.26C194.63 74.6032 201.144 83.3053 198.973 94.1851L191.374 138.788H169.662L177.261 98.5368C178.346 93.0969 178.346 89.8334 170.748 89.8334H154.463L144.693 138.788H124.066V138.788ZM189.983 161.633L207.352 73.515H247.52C264.89 74.6032 273.576 83.3053 273.576 98.5368C273.576 124.646 252.948 139.876 234.493 138.788H214.952L210.609 161.633H189.983V161.633ZM219.293 122.47L224.722 89.8334H238.836C246.435 89.8334 251.862 93.0969 251.862 99.6238C250.778 118.119 242.092 121.382 232.322 122.47H219.294H219.293Z" fill="#232531"/>
</svg>
